<?xml version="1.0" encoding="UTF-8" standalone="no"?>
<svg
   version="1.1"
   id="Ebene_1"
   width="406.881px"
   height="207.561px"
   viewBox="0 0 406.881 207.561"
   xml:space="preserve"
   sodipodi:docname="Hochschule_Amberg-Weiden_Logo_2013.svg"
   inkscape:version="1.1.1 (3bf5ae0d25, 2021-09-20)"
   xmlns:inkscape="http://www.inkscape.org/namespaces/inkscape"
   xmlns:sodipodi="http://sodipodi.sourceforge.net/DTD/sodipodi-0.dtd"
   xmlns="http://www.w3.org/2000/svg"
   xmlns:svg="http://www.w3.org/2000/svg"><defs
   id="defs930"><rect
     x="338.25048"
     y="120.32626"
     width="216.58726"
     height="84.22838"
     id="rect45863" /><rect
     x="329.33742"
     y="174.6959"
     width="72.641407"
     height="48.576156"
     id="rect23611" /><rect
     x="319.53306"
     y="153.30457"
     width="69.967491"
     height="46.793545"
     id="rect20129" /></defs><sodipodi:namedview
   id="namedview928"
   pagecolor="#505050"
   bordercolor="#eeeeee"
   borderopacity="1"
   inkscape:pageshadow="0"
   inkscape:pageopacity="0"
   inkscape:pagecheckerboard="0"
   showgrid="false"
   inkscape:zoom="1.1219496"
   inkscape:cx="196.53289"
   inkscape:cy="-19.608723"
   inkscape:window-width="1500"
   inkscape:window-height="938"
   inkscape:window-x="-6"
   inkscape:window-y="-6"
   inkscape:window-maximized="1"
   inkscape:current-layer="Ebene_1" />
     <path
   style="fill:#f29400"
   id="path3223"
   d="m 387.71827,0.001 c -5.676,0 -11.293,2.508 -15.078,7.312 l -58.646,74.471 -58.644,-74.471 c -3.637,-4.616 -9.188,-7.312 -15.063,-7.312 l 0,0 c -5.878,0 -11.431,2.693 -15.062,7.312 l -58.641,74.469 -58.642,-74.468 c -3.635,-4.617 -9.188,-7.312 -15.062,-7.312 -5.878,0 -11.431,2.693 -15.064,7.312 l -73.704,93.603 c -6.554,8.317 -5.119,20.375 3.2,26.927 8.32,6.552 20.377,5.118 26.929,-3.202 l 58.641,-74.469 58.638,74.468 c 3.635,4.617 9.188,7.312 15.064,7.312 5.876,0 11.43,-2.693 15.062,-7.312 l 58.644,-74.469 58.644,74.469 c 3.637,4.617 9.188,7.312 15.062,7.312 5.879,0 11.432,-2.693 15.063,-7.312 l 73.709,-93.6 c 6.553,-8.32 5.119,-20.376 -3.201,-26.93 -3.513,-2.767 -7.699,-4.11 -11.849,-4.11 z" /><path
   style="fill:#b0a79d"
   id="path3225"
   d="m 70.08927,109.201 c 0,-12.563 10.186,-22.75 22.75,-22.75 12.562,0 22.75,10.187 22.75,22.75 0,12.564 -10.188,22.75 -22.75,22.75 -12.565,0 -22.75,-10.185 -22.75,-22.75" /><text
   xml:space="preserve"
   id="text20127"
   style="fill:black;fill-opacity:1;stroke:none;font-family:'Viner Hand ITC';font-style:normal;font-weight:normal;font-size:40px;line-height:1.25;letter-spacing:0px;word-spacing:0px;white-space:pre;shape-inside:url(#rect20129);-inkscape-font-specification:'Viner Hand ITC';font-stretch:normal;font-variant:normal" /><text
   xml:space="preserve"
   id="text45861"
   style="font-style:normal;font-weight:normal;font-size:40px;line-height:1.25;font-family:sans-serif;letter-spacing:0px;word-spacing:0px;white-space:pre;shape-inside:url(#rect45863);fill:#000000;fill-opacity:1;stroke:none"
   transform="matrix(1.1517888,0,0,1.5707753,-299.67492,-55.913211)"><tspan
     x="338.25"
     y="157.2207"
     id="tspan57483"><tspan
       style="font-family:'Showcard Gothic';-inkscape-font-specification:'Showcard Gothic';fill:#f29400"
       id="tspan57481">OTH-Wiki</tspan></tspan></text></svg>
